<svg width="37" height="34" viewBox="0 0 37 34" fill="none" xmlns="http://www.w3.org/2000/svg">
<path opacity="0.9" d="M36.9871 16.9668C36.9871 18.1621 36.0236 19.0984 34.9316 19.0984H32.876L32.921 29.7367C32.921 29.916 32.9081 30.0953 32.8889 30.2746V31.3438C32.8889 32.8113 31.739 34 30.3194 34H29.2916C29.221 34 29.1503 34 29.0797 33.9934C28.9897 34 28.8998 34 28.8099 34H26.7222H25.1805C23.7609 34 22.6111 32.8113 22.6111 31.3438V29.75V25.5C22.6111 24.3246 21.6925 23.375 20.5555 23.375H16.4444C15.3074 23.375 14.3889 24.3246 14.3889 25.5V29.75V31.3438C14.3889 32.8113 13.239 34 11.8194 34H10.2778H8.22863C8.13227 34 8.03592 33.9934 7.93956 33.9867C7.86248 33.9934 7.7854 34 7.70831 34H6.68054C5.26092 34 4.11109 32.8113 4.11109 31.3438V23.9062C4.11109 23.8465 4.11109 23.7801 4.11751 23.7203V19.0984H2.05554C0.899286 19.0984 -1.95503e-05 18.1688 -1.95503e-05 16.9668C-1.95503e-05 16.3691 0.192689 15.8379 0.642341 15.373L17.1125 0.53125C17.5621 0.0664062 18.076 0 18.5257 0C18.9753 0 19.4892 0.132812 19.8746 0.464844L36.2805 15.373C36.7944 15.8379 37.0514 16.3691 36.9871 16.9668Z" fill="#0A5C03"/>
</svg>
