<svg width="35" height="28" viewBox="0 0 35 28" fill="none" xmlns="http://www.w3.org/2000/svg">
<path d="M15.7401 21.3501L15.7411 21.3509C16.1637 21.689 16.7092 21.7244 17.1358 21.5824C17.5554 21.4427 18 21.0711 18 20.4806V16.9839H25.6855C26.3175 16.9839 27.0323 16.5535 27.0323 15.8065V12.1935C27.0323 11.4465 26.3175 11.0161 25.6855 11.0161H18V7.51371C18 6.92132 17.5512 6.55077 17.1327 6.41185C16.7072 6.27061 16.1603 6.30413 15.7394 6.64478C15.7391 6.64501 15.7388 6.64524 15.7386 6.64547L7.67556 13.1297C7.67539 13.1299 7.67522 13.13 7.67506 13.1301C7.40529 13.3462 7.23916 13.6558 7.23916 13.9972C7.23916 14.3385 7.40529 14.6482 7.67506 14.8642C7.67522 14.8644 7.67539 14.8645 7.67556 14.8646L15.7401 21.3501ZM17.5 27.5C7.99892 27.5 0.5 21.3594 0.5 14C0.5 6.64062 7.99892 0.5 17.5 0.5C27.0011 0.5 34.5 6.64062 34.5 14C34.5 21.3594 27.0011 27.5 17.5 27.5Z" fill="#0A5C03" stroke="black"/>
</svg>
