<svg width="30" height="30" viewBox="0 0 30 30" fill="none" xmlns="http://www.w3.org/2000/svg">
<g opacity="0.9" clip-path="url(#clip0_4_1361)">
<rect width="30" height="30" fill="#255B20"/>
<path d="M15 5C20.5125 5 25 9.4875 25 15C25 20.5125 20.5125 25 15 25C9.4875 25 5 20.5125 5 15C5 9.4875 9.4875 5 15 5ZM15 2.5C8.1 2.5 2.5 8.1 2.5 15C2.5 21.9 8.1 27.5 15 27.5C21.9 27.5 27.5 21.9 27.5 15C27.5 8.1 21.9 2.5 15 2.5ZM16.25 15V10H13.75V15H10L15 20L20 15H16.25Z" fill="white"/>
</g>
<defs>
<clipPath id="clip0_4_1361">
<rect width="30" height="30" fill="white"/>
</clipPath>
</defs>
</svg>
